<?xml version="1.0" encoding="iso-8859-1"?>
<!-- Generator: Adobe Illustrator 18.0.0, SVG Export Plug-In . SVG Version: 6.00 Build 0)  -->
<!DOCTYPE svg PUBLIC "-//W3C//DTD SVG 1.1//EN" "http://www.w3.org/Graphics/SVG/1.1/DTD/svg11.dtd">
<svg version="1.1" id="Capa_1" xmlns="http://www.w3.org/2000/svg" xmlns:xlink="http://www.w3.org/1999/xlink" x="0px" y="0px"
	 viewBox="0 0 368.416 368.416" style="enable-background:new 0 0 368.416 368.416;" xml:space="preserve">
<g>
	<path d="M231.816,59.265c61.613-0.002,116.601,19.74,116.601,133.515c0,100.109-62.976,116.371-104.792,116.371l-44.958-0.078
		c-13.516,0-24.473-10.957-24.473-24.473c0-11.908,8.579-24.016,19.771-24.016l1.365,0.014c2.109,0,3.818-1.709,3.818-3.818
		c0-2.109-1.709-3.82-3.818-3.82l-17.938-0.049c-13.516,0-24.471-10.904-24.471-24.422c0-12.299,8.588-24.256,20.893-24.256
		l1.014,0.008c2.168,0,3.926-1.756,3.926-3.922c0-2.168-1.758-3.926-3.926-3.926l-17.721-0.02
		c-13.517,0-24.473-10.957-24.473-24.471c0-13.381,10.739-24.246,24.068-24.465h1.193c2.201,0,3.986-1.783,3.986-3.984
		c0-2.201-1.785-3.984-3.986-3.984h-4.617c-0.045,0-0.089,0.012-0.135,0.014c-20.966,0.012-102.903,0.076-111.269,0.076
		c-0.45,0-0.686,0-0.686,0c-11.757,0-21.19-11.846-21.19-24.246c0-13.516,10.957-24.471,24.472-24.471c0,0,178.633,0,182.132,0
		c3.627,0,4.039-2.432,4.039-3.182s-0.423-3.264-4.047-3.264h-28.823c0-11.045,9.282-24.557,25-25
		C225.796,59.312,228.817,59.265,231.816,59.265 M231.825,39.265v20l-0.004-20c-3.084,0-6.314,0.047-9.611,0.14
		c-21.576,0.608-36.689,15.063-42.169,31.437H44.472C19.95,70.842,0,90.792,0,115.313c0,23.984,18.861,44.246,41.188,44.246v-0.001
		c0.227,0.001,0.455,0.001,0.688,0.001c4.543,0,30.775-0.019,57.164-0.038c5.16-0.004,10.328-0.008,15.338-0.012
		c-1.148,3.979-1.743,8.143-1.743,12.393c0,16.966,9.552,31.744,23.56,39.24c-2.105,5.328-3.272,11.193-3.272,17.346
		c0,17.26,9.907,32.253,24.337,39.604c-1.994,5.288-3.065,10.935-3.065,16.508c0,24.522,19.95,44.473,44.473,44.473l44.925,0.078
		c32.033,0,59.863-8.629,80.514-24.955c29.402-23.245,44.312-60.731,44.312-111.416c0-58.499-13.696-99.17-41.868-124.336
		C297.269,42.29,258.465,39.265,231.825,39.265L231.825,39.265z"/>
</g>
<g>
</g>
<g>
</g>
<g>
</g>
<g>
</g>
<g>
</g>
<g>
</g>
<g>
</g>
<g>
</g>
<g>
</g>
<g>
</g>
<g>
</g>
<g>
</g>
<g>
</g>
<g>
</g>
<g>
</g>
</svg>
